<svg width="548" height="395" viewBox="0 0 548 395" fill="none" xmlns="http://www.w3.org/2000/svg">
<path opacity="0.6" d="M318.399 69.5496C283.268 68.3301 249.781 57.0018 217.853 44.6102C185.926 32.2186 154.281 18.4866 119.972 11.9204C97.9127 7.69249 72.6854 7.09785 54.9153 18.9099C37.8112 30.2735 32.2864 49.8914 29.3147 68.0932C27.0795 81.79 25.7828 96.2023 31.8929 109.027C36.1462 117.927 43.6942 125.41 48.9163 133.936C67.0799 163.603 54.2392 200.188 34.5518 229.179C25.3187 242.785 14.6071 255.731 7.48295 270.198C0.35876 284.666 -2.94097 301.24 3.29522 315.995C9.47591 330.609 24.1986 341.605 40.1523 349.33C72.5543 365.007 110.733 369.492 147.964 372.062C230.376 377.691 313.233 375.252 395.862 372.813C426.443 371.906 457.16 370.994 487.241 366.262C503.946 363.637 521.197 359.474 533.326 349.426C548.72 336.666 552.539 315.068 542.221 299.068C524.915 272.239 477.069 265.572 464.97 236.778C458.315 220.929 465.152 203.272 474.829 188.572C495.581 157.041 530.374 129.376 532.206 93.3299C533.467 68.572 516.741 43.7838 490.878 32.0675C463.774 19.7767 426.186 21.3288 406.19 41.6421C385.6 62.5702 349.414 70.623 318.399 69.5496Z" fill="#587EEC"/>
<path d="M122.227 365.36C122.227 365.36 94.4769 344.407 89.2347 317.754C87.1088 306.56 81.4066 296.356 72.9832 288.672C68.9537 285.058 64.6015 281.819 59.9811 278.997" stroke="#9AB1F3" stroke-width="2" stroke-miterlimit="10"/>
<path d="M56.5854 262.206C59.0173 265.492 60.1172 279.415 60.1172 279.415C60.1172 279.415 47.115 274.301 44.6781 271.02C43.5079 269.443 43.0129 267.466 43.3019 265.525C43.591 263.583 44.6405 261.836 46.2195 260.667C47.7985 259.498 49.7777 259.004 51.7217 259.292C53.6656 259.581 55.4152 260.629 56.5854 262.206V262.206Z" fill="#587EEC"/>
<path d="M79.9057 273.131C80.158 277.208 73.5131 289.494 73.5131 289.494C73.5131 289.494 65.3748 278.135 65.1175 274.059C65.0196 272.115 65.6924 270.211 66.9902 268.76C68.2879 267.308 70.1061 266.426 72.0506 266.304C73.9952 266.182 75.9096 266.83 77.3789 268.108C78.8483 269.386 79.7543 271.191 79.9007 273.131H79.9057Z" fill="#587EEC"/>
<path d="M102.509 304.536C100.673 308.185 88.7199 315.441 88.7199 315.441C88.7199 315.441 87.4434 301.533 89.28 297.884C90.1841 296.169 91.7264 294.876 93.5751 294.284C95.4238 293.693 97.4311 293.85 99.165 294.722C100.899 295.594 102.221 297.111 102.846 298.946C103.472 300.782 103.351 302.789 102.509 304.536V304.536Z" fill="#587EEC"/>
<path d="M114.26 332.131C113.064 336.037 102.514 345.203 102.514 345.203C102.514 345.203 98.8965 331.713 100.092 327.802C100.667 325.926 101.965 324.354 103.699 323.434C105.434 322.513 107.464 322.318 109.343 322.892C111.222 323.466 112.795 324.762 113.717 326.494C114.64 328.227 114.835 330.255 114.26 332.131V332.131Z" fill="#587EEC"/>
<path d="M61.4846 299.371C65.521 299.915 78.2809 294.16 78.2809 294.16C78.2809 294.16 67.5139 285.251 63.4574 284.707C61.5104 284.445 59.5392 284.967 57.9775 286.157C56.4158 287.348 55.3914 289.109 55.1298 291.054C54.8682 292.998 55.3908 294.967 56.5825 296.527C57.7743 298.087 59.5376 299.11 61.4846 299.371V299.371Z" fill="#587EEC"/>
<path d="M75.6371 331.476C79.6734 330.786 90.1024 321.488 90.1024 321.488C90.1024 321.488 77.1558 316.207 73.1244 316.897C72.1593 317.055 71.235 317.403 70.4049 317.92C69.5749 318.436 68.8555 319.112 68.2883 319.908C67.7212 320.704 67.3174 321.604 67.1004 322.556C66.8834 323.509 66.8575 324.495 67.024 325.458C67.1906 326.42 67.5464 327.34 68.0709 328.165C68.5954 328.989 69.2782 329.702 70.0799 330.261C70.8817 330.821 71.7864 331.216 72.7419 331.425C73.6975 331.633 74.6849 331.651 75.6472 331.476H75.6371Z" fill="#587EEC"/>
<path d="M93.6745 360.8C97.7664 360.8 109.623 353.397 109.623 353.397C109.623 353.397 97.7614 346.004 93.6695 346.004C91.7051 346.004 89.8212 346.784 88.4321 348.171C87.0431 349.558 86.2628 351.44 86.2628 353.402C86.2628 355.364 87.0431 357.245 88.4321 358.633C89.8212 360.02 91.7051 360.8 93.6695 360.8H93.6745Z" fill="#587EEC"/>
<path d="M391.806 184.133C391.806 184.133 408.91 153.872 434.692 145.154C445.518 141.563 454.887 134.563 461.393 125.203C464.444 120.729 467.077 115.984 469.259 111.028" stroke="#9AB1F3" stroke-width="2" stroke-miterlimit="10"/>
<path d="M485.444 105.485C482.508 108.327 468.84 111.27 468.84 111.27C468.84 111.27 472.195 97.7141 475.132 94.8669C476.549 93.5415 478.431 92.825 480.372 92.8716C482.313 92.9183 484.158 93.7243 485.51 95.1162C486.862 96.5081 487.613 98.3746 487.6 100.314C487.588 102.253 486.814 104.11 485.444 105.485Z" fill="#587EEC"/>
<path d="M477.715 129.991C473.678 130.787 460.626 125.838 460.626 125.838C460.626 125.838 470.818 116.264 474.829 115.483C475.792 115.269 476.788 115.25 477.759 115.426C478.729 115.603 479.655 115.971 480.481 116.509C481.307 117.048 482.017 117.746 482.57 118.562C483.122 119.378 483.506 120.297 483.698 121.263C483.89 122.229 483.887 123.225 483.689 124.19C483.491 125.155 483.102 126.071 482.545 126.884C481.987 127.697 481.273 128.391 480.444 128.924C479.614 129.458 478.686 129.82 477.715 129.991V129.991Z" fill="#587EEC"/>
<path d="M449.581 156.538C445.717 155.202 436.932 144.338 436.932 144.338C436.932 144.338 450.555 141.223 454.43 142.559C455.361 142.867 456.221 143.357 456.961 144.001C457.701 144.644 458.306 145.427 458.74 146.306C459.174 147.184 459.429 148.14 459.49 149.118C459.552 150.096 459.418 151.076 459.097 152.002C458.776 152.927 458.274 153.78 457.62 154.511C456.966 155.241 456.174 155.834 455.288 156.256C454.403 156.678 453.443 156.92 452.463 156.969C451.483 157.017 450.504 156.871 449.581 156.538V156.538Z" fill="#587EEC"/>
<path d="M423.728 171.837C419.692 171.172 409.218 161.925 409.218 161.925C409.218 161.925 422.129 156.553 426.16 157.218C428.101 157.537 429.835 158.612 430.981 160.208C432.127 161.804 432.592 163.789 432.273 165.727C431.954 167.665 430.877 169.397 429.279 170.541C427.682 171.686 425.694 172.151 423.754 171.832L423.728 171.837Z" fill="#587EEC"/>
<path d="M449.228 115.241C449.223 119.328 456.645 131.185 456.645 131.185C456.645 131.185 464.057 119.343 464.057 115.261C464.083 114.274 463.91 113.291 463.55 112.371C463.189 111.451 462.648 110.613 461.958 109.906C461.268 109.198 460.443 108.636 459.532 108.252C458.621 107.868 457.642 107.67 456.653 107.67C455.664 107.67 454.685 107.868 453.774 108.252C452.863 108.636 452.038 109.198 451.347 109.906C450.657 110.613 450.116 111.451 449.756 112.371C449.395 113.291 449.223 114.274 449.249 115.261L449.228 115.241Z" fill="#587EEC"/>
<path d="M419.243 133.513C420.464 137.414 431.08 146.509 431.08 146.509C431.08 146.509 434.611 132.994 433.38 129.094C432.742 127.287 431.426 125.798 429.711 124.94C427.995 124.082 426.013 123.923 424.182 124.496C422.351 125.069 420.814 126.329 419.895 128.011C418.975 129.693 418.745 131.665 419.253 133.513H419.243Z" fill="#587EEC"/>
<path d="M392.568 155.268C393.113 159.299 402.033 170.068 402.033 170.068C402.033 170.068 407.79 157.344 407.245 153.297C407.137 152.317 406.833 151.368 406.353 150.506C405.872 149.645 405.224 148.888 404.446 148.28C403.668 147.672 402.776 147.226 401.823 146.968C400.87 146.709 399.875 146.644 398.896 146.775C397.917 146.907 396.975 147.232 396.124 147.733C395.273 148.234 394.531 148.899 393.941 149.69C393.351 150.482 392.926 151.383 392.69 152.341C392.454 153.298 392.413 154.294 392.568 155.268V155.268Z" fill="#587EEC"/>
<path opacity="0.25" d="M485.444 105.485C482.508 108.327 468.84 111.27 468.84 111.27C468.84 111.27 472.195 97.7141 475.132 94.8669C476.549 93.5415 478.431 92.825 480.372 92.8716C482.313 92.9183 484.158 93.7243 485.51 95.1162C486.862 96.5081 487.613 98.3746 487.6 100.314C487.588 102.253 486.814 104.11 485.444 105.485Z" fill="black"/>
<path opacity="0.25" d="M477.715 129.991C473.678 130.787 460.626 125.838 460.626 125.838C460.626 125.838 470.818 116.264 474.829 115.483C475.792 115.269 476.788 115.25 477.759 115.426C478.729 115.603 479.655 115.971 480.481 116.509C481.307 117.048 482.017 117.746 482.57 118.562C483.122 119.378 483.506 120.297 483.698 121.263C483.89 122.229 483.887 123.225 483.689 124.19C483.491 125.155 483.102 126.071 482.545 126.884C481.987 127.697 481.273 128.391 480.444 128.924C479.614 129.458 478.686 129.82 477.715 129.991V129.991Z" fill="black"/>
<path opacity="0.25" d="M449.581 156.538C445.717 155.202 436.932 144.338 436.932 144.338C436.932 144.338 450.555 141.223 454.43 142.559C455.361 142.867 456.221 143.357 456.961 144.001C457.701 144.644 458.306 145.427 458.74 146.306C459.174 147.184 459.429 148.14 459.49 149.118C459.552 150.096 459.418 151.076 459.097 152.002C458.776 152.927 458.274 153.78 457.62 154.511C456.966 155.241 456.174 155.834 455.288 156.256C454.403 156.678 453.443 156.92 452.463 156.969C451.483 157.017 450.504 156.871 449.581 156.538V156.538Z" fill="black"/>
<path opacity="0.25" d="M423.728 171.837C419.692 171.172 409.218 161.925 409.218 161.925C409.218 161.925 422.129 156.553 426.16 157.218C428.101 157.537 429.835 158.612 430.981 160.208C432.127 161.804 432.592 163.789 432.273 165.727C431.954 167.665 430.877 169.397 429.279 170.541C427.682 171.686 425.694 172.151 423.754 171.832L423.728 171.837Z" fill="black"/>
<path opacity="0.25" d="M449.228 115.241C449.223 119.328 456.645 131.185 456.645 131.185C456.645 131.185 464.057 119.343 464.057 115.261C464.083 114.274 463.91 113.291 463.55 112.371C463.189 111.451 462.648 110.613 461.958 109.906C461.268 109.198 460.443 108.636 459.532 108.252C458.621 107.868 457.642 107.67 456.653 107.67C455.664 107.67 454.685 107.868 453.774 108.252C452.863 108.636 452.038 109.198 451.347 109.906C450.657 110.613 450.116 111.451 449.756 112.371C449.395 113.291 449.223 114.274 449.249 115.261L449.228 115.241Z" fill="black"/>
<path opacity="0.25" d="M419.243 133.513C420.464 137.414 431.08 146.509 431.08 146.509C431.08 146.509 434.611 132.994 433.38 129.094C432.742 127.287 431.426 125.798 429.711 124.94C427.995 124.082 426.013 123.923 424.182 124.496C422.351 125.069 420.814 126.329 419.895 128.011C418.975 129.693 418.745 131.665 419.253 133.513H419.243Z" fill="black"/>
<path opacity="0.25" d="M392.568 155.268C393.113 159.299 402.033 170.068 402.033 170.068C402.033 170.068 407.79 157.344 407.245 153.297C407.137 152.317 406.833 151.368 406.353 150.506C405.872 149.645 405.224 148.888 404.446 148.28C403.668 147.672 402.776 147.226 401.823 146.968C400.87 146.709 399.875 146.644 398.896 146.775C397.917 146.907 396.975 147.232 396.124 147.733C395.273 148.234 394.531 148.899 393.941 149.69C393.351 150.482 392.926 151.383 392.69 152.341C392.454 153.298 392.413 154.294 392.568 155.268V155.268Z" fill="black"/>
<path d="M392.79 183.533C392.79 183.533 396.15 148.943 416.16 130.55C424.6 122.884 430.325 112.693 432.477 101.504C433.457 96.1844 433.945 90.7865 433.935 85.3781" stroke="#9AB1F3" stroke-width="2" stroke-miterlimit="10"/>
<path d="M446.478 73.7071C444.965 77.4966 433.643 85.7207 433.643 85.7207C433.643 85.7207 431.211 71.9685 432.74 68.179C433.476 66.3594 434.905 64.9063 436.714 64.1394C438.523 63.3724 440.562 63.3546 442.384 64.0896C444.206 64.8247 445.661 66.2525 446.429 68.059C447.197 69.8654 447.214 71.9026 446.478 73.7222V73.7071Z" fill="#587EEC"/>
<path d="M449.359 99.2663C446.014 101.615 432.053 102.386 432.053 102.386C432.053 102.386 437.492 89.5152 440.838 87.1669C441.631 86.5739 442.535 86.1459 443.497 85.9083C444.459 85.6707 445.459 85.6282 446.438 85.7835C447.416 85.9388 448.354 86.2886 449.195 86.8122C450.035 87.3359 450.763 88.0227 451.333 88.8321C451.903 89.6414 452.305 90.5568 452.515 91.5241C452.724 92.4914 452.738 93.4908 452.554 94.4633C452.37 95.4358 451.992 96.3615 451.443 97.1856C450.895 98.0097 450.186 98.7155 449.359 99.2612V99.2663Z" fill="#587EEC"/>
<path d="M434.395 134.934C430.318 135.277 417.876 128.887 417.876 128.887C417.876 128.887 429.077 120.522 433.154 120.179C435.111 120.015 437.054 120.634 438.555 121.9C440.055 123.167 440.991 124.976 441.156 126.932C441.32 128.887 440.7 130.828 439.432 132.326C438.165 133.825 436.352 134.76 434.395 134.924V134.934Z" fill="#587EEC"/>
<path d="M416.983 159.37C413.022 160.378 399.682 156.21 399.682 156.21C399.682 156.21 409.304 146.076 413.264 145.048C415.166 144.556 417.185 144.838 418.879 145.832C420.572 146.827 421.8 148.453 422.293 150.352C422.786 152.251 422.504 154.268 421.508 155.959C420.512 157.65 418.884 158.877 416.983 159.37V159.37Z" fill="#587EEC"/>
<path d="M417.336 97.311C418.991 101.045 430.565 108.901 430.565 108.901C430.565 108.901 432.533 95.0735 430.878 91.3394C430.053 89.5924 428.577 88.2367 426.765 87.5622C424.953 86.8876 422.949 86.9476 421.181 87.7293C419.412 88.5111 418.02 89.9526 417.302 91.7458C416.583 93.539 416.596 95.5418 417.336 97.3261V97.311Z" fill="#587EEC"/>
<path d="M397.336 126.146C400.035 129.215 413.426 133.236 413.426 133.236C413.426 133.236 411.165 119.454 408.466 116.385C407.829 115.639 407.05 115.028 406.174 114.585C405.298 114.143 404.343 113.879 403.364 113.809C402.385 113.738 401.402 113.863 400.472 114.175C399.541 114.488 398.683 114.982 397.945 115.629C397.208 116.275 396.606 117.062 396.176 117.943C395.746 118.824 395.495 119.781 395.438 120.76C395.381 121.738 395.52 122.718 395.845 123.643C396.171 124.568 396.678 125.418 397.336 126.146V126.146Z" fill="#587EEC"/>
<path d="M381.75 156.845C383.89 160.322 396.407 166.546 396.407 166.546C396.407 166.546 396.513 152.582 394.389 149.1C393.332 147.492 391.689 146.359 389.809 145.94C387.929 145.522 385.96 145.852 384.319 146.859C382.679 147.867 381.495 149.473 381.02 151.337C380.546 153.201 380.816 155.177 381.776 156.845H381.75Z" fill="#587EEC"/>
<path d="M367.058 48.0723C367.895 45.0034 368.904 41.9193 369.611 38.8101C368.763 41.9193 367.749 45.0134 367.058 48.0723Z" fill="url(#paint0_linear_4_6)"/>
<path d="M363.304 77.6327C363.233 77.5117 363.183 77.3908 363.127 77.2799C363.127 77.2295 363.077 77.1892 363.057 77.1388C362.947 77.1906 362.834 77.2361 362.719 77.2749C362.497 77.3605 362.27 77.4412 362.038 77.5067C361.805 77.5722 361.71 77.6075 361.533 77.6478C361.387 77.6982 361.236 77.7369 361.084 77.7637L361.124 77.8544C361.311 77.8141 361.493 77.7788 361.679 77.7284L361.73 78.3533C361.942 78.3533 362.138 78.323 362.33 78.323C362.421 78.3181 362.512 78.3181 362.603 78.323C362.996 78.323 363.339 78.323 363.612 78.323C363.506 78.0963 363.395 77.8594 363.304 77.6327ZM465.727 240.467C463.355 237.277 458.623 203.04 458.623 203.04C458.623 203.04 449.314 178.695 451.852 168.98C454.39 159.264 444.919 134.405 444.919 134.405C444.919 134.405 438.663 131.689 438.325 127.658C438.325 127.658 412.78 119.595 411.584 113.548C410.615 108.589 394.772 105.031 389.081 103.907C387.346 96.9129 385.6 90.3871 384.313 86.8243C383.965 85.7157 383.637 84.7582 383.334 84.0023C381.16 78.4591 374.439 77.9552 369.565 78.3986C369.354 77.4539 368.962 76.5589 368.41 75.7631C368.329 75.4895 368.17 75.2458 367.951 75.0626C367.846 74.9736 367.735 74.8927 367.618 74.8207C367.53 74.6574 367.413 74.5108 367.275 74.3874C367.136 74.2628 366.984 74.1546 366.821 74.0649C366.703 74.0015 366.582 73.9459 366.457 73.8986C366.165 73.7874 365.863 73.7047 365.554 73.6516C365.195 73.5778 364.831 73.5307 364.464 73.5105C365.355 73.1215 366.149 72.5417 366.79 71.8123C367.227 71.3002 367.551 70.703 367.744 70.0586C367.904 69.5228 367.975 68.9645 367.956 68.4058C367.825 68.636 367.673 68.8537 367.502 69.0558C367.714 66.8234 366.533 64.5557 365.857 62.3334C365.038 59.4403 364.886 56.3993 365.413 53.4391C366.089 48.9743 367.764 44.4591 368.899 39.9137C368.902 39.8886 368.902 39.8632 368.899 39.8381C369.495 37.5807 369.863 35.2697 369.999 32.9393C370.196 28.2377 368.99 23.5461 367.053 19.2628C365.332 15.4682 362.794 11.7341 358.909 10.1921C356.023 9.02799 352.789 9.21444 349.681 9.02295C342.708 8.58957 336.058 6.14048 329.429 3.91312C322.799 1.68576 315.978 -0.340025 309 0.0479989C302.022 0.436023 294.842 3.79722 291.658 9.96529C290.649 11.8903 290.069 14.032 288.863 15.8411C286.603 19.2527 282.556 20.961 279.181 23.3143C275.806 25.6677 272.834 29.0087 271.613 32.9948C270.946 35.1423 270.852 37.4265 271.34 39.6214V39.6214C271.45 40.1171 271.592 40.6052 271.764 41.0828C272.243 42.4143 272.99 43.6337 273.959 44.6657C274.69 45.4285 275.53 46.0789 276.451 46.5958V46.5958C277.609 47.2366 278.848 47.718 280.135 48.0269C280.089 48.1781 280.044 48.3394 279.993 48.4956C279.913 48.7526 279.842 48.9995 279.766 49.2767C279.6 49.8965 279.443 50.5264 279.312 51.1614C279.307 51.2066 279.307 51.2522 279.312 51.2974C278.692 54.1637 278.381 57.088 278.384 60.0204C278.383 61.4072 278.453 62.7932 278.596 64.1728V64.1728C280.614 84.6221 297.516 100.753 318.399 101.801C319.116 101.836 319.837 101.856 320.569 101.856C320.902 101.856 321.23 101.856 321.578 101.856C321.906 102.29 322.229 102.733 322.537 103.167C322.844 103.6 323.127 104.044 323.394 104.477L322.663 103.721L321.931 103.051C321.733 103.323 321.512 103.577 321.27 103.812C320.793 103.644 320.306 103.506 319.812 103.398V103.398C317.718 102.935 314.529 102.764 310.332 104.028C306.472 105.182 301.754 107.556 296.235 112.066L269.337 128.192L254.786 137.031L249.544 149.83C249.544 149.83 245.603 165.039 241.219 182.465C241.047 182.515 240.881 182.565 240.714 182.626C240.359 182.586 240.002 182.565 239.645 182.565C237.101 182.56 234.654 183.538 232.817 185.297C230.981 187.055 229.898 189.455 229.796 191.994C221.077 202.576 220.583 213.159 222.631 218.017C222.817 218.472 223.05 218.906 223.328 219.312C224.67 221.247 227.177 226.236 229.72 231.552C229.655 231.991 229.614 232.359 229.594 232.636C229.59 232.726 229.59 232.817 229.594 232.908C229.594 232.908 231.108 255.741 226.062 262.287C224.957 263.713 225.124 265.588 226.062 267.664C229.443 275.132 242.808 285.105 242.808 285.105C242.808 285.105 258.838 285.019 267.768 284.046C267.743 284.943 267.723 285.835 267.703 286.707C267.501 295.516 267.501 302.898 267.501 302.898L267.168 312.135C267.168 312.135 264.14 331.602 262.627 336.969C261.673 340.335 262.773 371.503 263.732 394.417H421.665C423.521 380.861 420.903 339.675 420.903 339.675C420.903 339.675 418.415 329.027 418.325 319.745C418.32 319.734 418.317 319.723 418.317 319.712C418.317 319.7 418.32 319.689 418.325 319.679C418.325 318.868 418.325 318.077 418.355 317.301L419.5 317.26L421.559 317.19H421.746C421.746 317.19 421.796 316.998 421.912 316.686C422.184 315.907 422.556 315.167 423.017 314.484C423.895 313.188 425.267 311.919 427.331 311.833C428.471 311.788 430.237 310.865 432.23 309.505C432.243 309.508 432.257 309.508 432.27 309.505C437.634 305.882 444.723 299.194 446.443 298.096C448.809 296.584 460.141 286.506 460.141 286.506C460.141 286.506 461.832 284.369 463.633 281.794L463.698 281.703C465.939 278.478 468.32 274.623 467.735 273.408C466.726 271.231 468.411 266.026 468.411 266.026C473.673 256.406 468.098 243.657 465.727 240.467ZM368.163 85.4687C368.211 85.6192 368.242 85.7748 368.254 85.9323C368.127 85.7661 368.001 85.5897 367.875 85.4284L367.754 85.2672L367.668 85.1462L367.86 84.8842C367.86 84.8842 367.86 84.8842 367.86 84.9195C367.993 85.0828 368.096 85.2689 368.163 85.4687V85.4687ZM366.467 81.0039C365.917 81.1148 365.484 81.2156 365.201 81.2912C364.843 80.6562 364.5 80.0213 364.192 79.3763C365.001 79.8449 365.763 80.39 366.467 81.0039V81.0039ZM365.519 81.8001C365.517 81.7901 365.517 81.7799 365.519 81.7699L365.559 81.8001C365.766 81.9362 365.968 82.0672 366.155 82.2033C366.321 82.3242 366.472 82.4401 366.624 82.5611C366.523 82.7374 366.412 82.9189 366.301 83.065C366.124 82.7878 365.958 82.5208 365.796 82.2436C365.695 82.1327 365.605 81.9816 365.519 81.8001ZM362.492 75.5817C363.466 75.4856 364.448 75.4856 365.423 75.5817V75.5817C365.559 75.5817 365.68 75.6069 365.801 75.627C366.075 75.6693 366.344 75.7385 366.604 75.8336C367.2 76.6668 367.567 77.6416 367.668 78.6607L367.396 78.701L367.128 78.7514C366.624 78.8371 366.119 78.9227 365.726 79.0033L365.221 79.1092C364.55 79.2553 364.162 79.3662 364.147 79.3712C364.081 79.2352 364.015 79.1092 363.945 78.9781C363.834 78.7615 363.718 78.5397 363.617 78.323C363.516 78.1064 363.385 77.8594 363.279 77.6327C363.208 77.5117 363.158 77.3908 363.102 77.2799C363.102 77.2295 363.052 77.1892 363.031 77.1388C363.002 77.0854 362.977 77.0298 362.956 76.9725C362.648 76.3477 362.365 75.7228 362.093 75.108C362.063 75.0475 362.038 74.982 362.012 74.9215L362.396 74.8963V75.0274L362.492 75.5817ZM242.112 388.188C242.072 380.685 241.527 372.566 240.013 364.947C239.367 361.707 238.701 358.466 238.025 355.282C237.854 354.485 237.687 353.699 237.521 352.913L235.967 353.12H235.825C231.587 333.159 227.157 315.572 227.157 315.572C227.157 315.572 218.358 282.016 219.377 279.34C219.508 278.992 219.342 278.055 218.968 276.679C216.839 269.049 207.949 248.026 204.841 240.84C204.841 240.809 204.816 240.774 204.806 240.749C204.301 239.545 203.938 238.733 203.827 238.496L204.559 227.773L204.599 227.128L204.695 225.757L204.654 225.722L204.695 225.087C204.695 225.087 197.016 218.798 184.008 214.257C183.504 214.076 182.969 213.9 182.439 213.728C183.09 209.39 183.953 204.491 185.078 199.719C185.184 199.24 185.3 198.777 185.421 198.308C185.527 197.84 185.648 197.386 185.769 196.927C185.961 196.182 186.168 195.446 186.38 194.72C187.081 194.498 187.772 194.252 188.453 193.99L188.716 193.889C197.107 190.628 204.031 184.44 208.205 176.472C212.379 168.504 213.522 159.295 211.42 150.551V150.551C210.222 145.592 208.01 140.933 204.922 136.869C204.69 136.557 204.443 136.244 204.195 135.937C203.948 135.63 203.65 135.287 203.373 134.975C204.831 131.664 206.552 128.514 206.693 125.294C206.718 124.886 206.718 124.477 206.693 124.07V124.019C206.506 121.948 205.588 119.852 203.449 117.65C200.325 114.419 195.88 112.782 191.435 111.995C186.99 111.209 182.459 111.189 177.989 110.66C170.577 109.773 163.357 107.49 155.946 106.79C146.816 105.946 137.625 107.509 129.29 111.325C123.776 113.845 118.19 118.249 117.857 124.291C117.585 129.285 121.066 134.073 120.188 139.006C119.316 143.854 114.371 147.668 114.805 152.572C114.971 154.487 115.955 156.2 117.186 157.727C117.61 158.231 118.059 158.735 118.523 159.239C120.32 161.138 122.297 162.963 123.301 165.356C123.342 165.457 123.382 165.558 123.417 165.659C124.27 168.022 123.887 171.01 121.778 172.366C121.789 172.375 121.798 172.387 121.803 172.401V172.401C121.833 172.442 121.863 172.472 121.889 172.512C121.892 172.504 121.892 172.495 121.889 172.487C122.636 173.372 123.645 174 124.77 174.281L125.199 174.412C124.85 174.79 124.522 175.183 124.189 175.596L123.973 175.883C123.416 176.63 122.911 177.413 122.459 178.227C122.202 178.68 121.954 179.134 121.747 179.587C121.056 180.97 120.555 182.439 120.259 183.956C119.719 187.292 120.481 190.769 119.664 194.035C118.655 198.066 115.461 201.16 113.66 204.905C110.249 211.96 112.181 220.239 112.867 228.03C113.801 238.612 112.287 249.24 110.779 259.752C109.978 265.342 109.178 270.938 108.377 276.538C106.359 290.594 104.341 304.65 102.322 318.706C101.586 323.857 100.713 329.289 97.277 333.265H97.3123C97.3123 333.265 97.3123 333.295 97.277 333.305C98.3084 333.756 99.4054 334.038 100.526 334.142V334.142C105.012 334.59 109.764 332.423 113.801 330.055C116.997 328.21 120.025 326.087 122.847 323.71C122.434 325.222 121.99 326.87 121.515 328.644C121.517 328.661 121.517 328.678 121.515 328.694V328.694C115.819 350.363 106.656 390.088 106.656 390.088C106.656 390.088 105.824 391.816 104.744 394.391H247.026C245.361 392.376 243.812 390.446 242.601 388.888L242.112 388.188ZM136.763 187.826C136.798 187.766 136.823 187.711 136.859 187.655C136.859 187.816 136.859 187.973 136.859 188.124C136.859 188.275 136.859 188.411 136.859 188.552C136.859 188.693 136.859 188.678 136.859 188.749C136.859 188.819 136.859 188.749 136.859 188.749C136.859 188.955 136.813 189.162 136.778 189.368C136.778 189.368 136.778 189.394 136.778 189.414L137.282 189.6L137.868 189.842C141.326 191.206 144.827 192.441 148.372 193.546C148.736 193.662 149.104 193.773 149.472 193.879L149.548 194.504C149.639 195.143 149.725 195.794 149.805 196.444C149.805 196.444 149.805 196.474 149.805 196.494C150.032 198.293 150.254 200.087 150.451 201.841C150.451 201.841 141.188 198.313 141.304 203.67C141.298 203.766 141.298 203.862 141.304 203.957C141.293 204.085 141.293 204.213 141.304 204.34C141.389 208.513 142.696 210.987 142.959 212.257C142.943 212.309 142.915 212.358 142.878 212.398C142.654 212.884 142.577 213.426 142.656 213.955C142.647 214.857 142.718 215.757 142.868 216.646C142.595 216.812 142.328 216.979 142.06 217.15C141.859 217.276 141.667 217.417 141.47 217.558C140.232 213.27 138.613 209.101 136.632 205.101C135.244 202.249 133.685 199.276 133.7 196.146C133.7 195.945 133.7 195.738 133.725 195.532C133.782 194.625 133.955 193.729 134.24 192.866C134.356 192.538 134.482 192.216 134.623 191.898C134.953 191.144 135.322 190.407 135.728 189.691C135.991 189.217 136.268 188.749 136.536 188.275C136.621 188.134 136.702 187.988 136.783 187.847L136.763 187.826ZM363.304 77.6327C363.233 77.5117 363.183 77.3908 363.127 77.2799C363.127 77.2295 363.077 77.1892 363.057 77.1388C362.947 77.1906 362.834 77.2361 362.719 77.2749C362.497 77.3605 362.27 77.4412 362.038 77.5067C361.805 77.5722 361.71 77.6075 361.533 77.6478L361.084 77.7637L361.124 77.8544C361.311 77.8141 361.493 77.7788 361.679 77.7284L361.73 78.3533C361.942 78.3533 362.138 78.323 362.33 78.323H362.603C362.996 78.323 363.339 78.323 363.612 78.323C363.506 78.0963 363.395 77.8594 363.304 77.6327Z" fill="url(#paint1_linear_4_6)"/>
<path d="M253.061 151.65L250.033 152.985C250.033 152.985 230.301 229.552 230.301 235.74C230.301 241.928 272.143 276.362 272.143 276.362L278.672 232.348C278.672 232.348 269.297 131.417 253.061 151.65Z" fill="#E8F5FF"/>
<path d="M344.843 127.295L327.36 118.184C326.381 114.014 324.643 110.06 322.234 106.518C319.676 102.829 316.275 99.2057 312.037 97.316C301.325 92.5186 357.345 67.3374 357.345 67.3374C358.228 70.3623 359.267 73.3395 360.458 76.2569C363.344 83.3723 368.132 92.5741 374.303 95.1945C384.792 99.6542 344.843 127.295 344.843 127.295Z" fill="#FFB0B1"/>
<path opacity="0.1" d="M360.458 76.2569C358.065 84.6649 353.087 92.1094 346.228 97.5392C339.369 102.969 330.976 106.11 322.234 106.518C319.676 102.829 316.275 99.2057 312.037 97.316C301.325 92.5186 357.345 67.3374 357.345 67.3374C358.228 70.3623 359.267 73.3395 360.458 76.2569V76.2569Z" fill="black"/>
<path d="M362.033 63.5428C362.035 71.789 359.588 79.8505 355.002 86.7078C350.417 93.5651 343.898 98.9101 336.271 102.067C328.644 105.224 320.25 106.05 312.152 104.443C304.055 102.835 296.616 98.8644 290.778 93.0339C284.939 87.2034 280.963 79.7745 279.352 71.6868C277.742 63.5992 278.568 55.216 281.728 47.5977C284.888 39.9794 290.239 33.468 297.104 28.8873C303.969 24.3065 312.04 21.862 320.296 21.863C325.784 21.8376 331.222 22.8984 336.297 24.9839C341.372 27.0695 345.983 30.1386 349.863 34.0139C353.744 37.8892 356.817 42.494 358.906 47.5623C360.995 52.6306 362.057 58.062 362.033 63.5428V63.5428Z" fill="#FFB0B1"/>
<path d="M368.057 121.943L356.674 148.47L346.634 166.077H314.494L305.12 142.004L308.919 117.04H333.465L349.313 116.148L354.666 114.364L358.117 116.319L368.057 121.943Z" fill="#575A89"/>
<path opacity="0.1" d="M364.136 86.5824C364.136 86.5824 371.235 88.0942 364.878 93.2998C358.521 98.5053 336.588 115.059 336.588 115.059C336.588 115.059 344.293 121.913 342.698 129.94L368.223 115.73L372.764 92.9924C372.764 92.9924 373.274 86.1591 364.136 86.5824Z" fill="black"/>
<path opacity="0.1" d="M341.608 115.059L325.372 117.735C325.372 117.735 328.722 130.107 327.047 133.619C326.997 133.728 326.954 133.841 326.921 133.957L320.296 151.841L325.261 165.886L342.446 142.478L336.588 133.619C336.588 133.619 342.779 125.425 346.462 122.583C350.145 119.741 341.608 115.059 341.608 115.059Z" fill="black"/>
<path d="M341.608 114.369L325.372 117.04C325.372 117.04 328.722 129.411 327.047 132.924C326.997 133.033 326.954 133.146 326.921 133.261L320.296 151.146L325.261 165.19L342.446 141.768L336.588 132.908C336.588 132.908 342.779 124.715 346.462 121.872C350.145 119.03 341.608 114.369 341.608 114.369Z" fill="#DCE6F2"/>
<path d="M364.818 85.247C364.818 85.247 371.917 86.7588 365.554 91.9644C359.192 97.1699 336.588 115.059 336.588 115.059C336.588 115.059 344.959 120.577 343.369 128.6L368.894 114.394L373.435 91.657C373.435 91.657 373.94 84.8237 364.818 85.247Z" fill="#575A89"/>
<path opacity="0.1" d="M323.349 108.095C323.349 108.095 324.898 110.988 331.735 116.203C331.735 116.203 320.352 122.25 324.706 130.752L307.294 126.216L304.615 117.856L323.349 108.095Z" fill="black"/>
<path d="M322.678 107.43C322.678 107.43 324.227 110.322 331.063 115.538C331.063 115.538 319.681 121.555 324.035 130.081L306.628 125.546L303.949 117.191L322.678 107.43Z" fill="#575A89"/>
<path opacity="0.1" d="M368.057 121.943L356.674 148.47L346.654 166.077H314.494L305.12 142.004L308.914 117.04H315.74C315.629 122.865 317.759 129.709 317.622 132.253C317.39 136.436 323.869 159.002 323.869 159.002C323.869 159.002 337.426 137.101 342.779 135.151C346.144 133.926 353.274 123.737 358.112 116.319L368.057 121.943Z" fill="black"/>
<path d="M412.896 261.536L411.74 262.987C411.74 262.987 420.111 304.949 417.795 314.479C417.401 316.196 417.177 317.948 417.124 319.709V319.785C416.715 329.481 419.647 342.064 419.647 342.064C419.647 342.064 421.988 379.153 420.656 394.407H263.934C263.015 371.851 262.026 342.628 262.925 339.388C264.438 334.041 267.465 314.645 267.465 314.645L267.798 305.453C267.798 305.453 267.798 296.569 268.071 286.672C268.187 282.222 268.359 277.551 268.606 273.409C268.924 268.198 269.368 263.809 269.978 261.652C270.354 260.017 270.57 258.35 270.624 256.673C270.624 256.517 270.624 256.356 270.654 256.194C270.654 255.69 270.705 255.146 270.725 254.587C270.725 254.431 270.725 254.274 270.725 254.083C270.821 250.838 270.785 246.988 270.679 242.997C270.679 242.78 270.679 242.558 270.679 242.336C270.594 239.343 270.468 236.289 270.326 233.387C269.887 224.316 269.317 216.646 269.317 216.646L250.069 152.95L255.255 140.19L269.65 131.382L296.265 115.332C309.247 104.673 317.794 105.953 321.053 107.123C321.37 107.23 321.68 107.357 321.982 107.501C322.083 107.551 322.163 107.591 322.239 107.637C322.343 107.686 322.442 107.743 322.537 107.808C321.644 108.237 320.869 108.875 320.276 109.667C319.609 110.569 319.133 111.598 318.879 112.691C318.708 113.368 318.589 114.057 318.52 114.752C318.455 115.483 318.43 116.239 318.43 117C318.466 118.668 318.609 120.333 318.859 121.983C318.859 122.014 318.859 122.054 318.859 122.094C319.025 123.273 319.232 124.427 319.434 125.511C319.431 125.529 319.431 125.548 319.434 125.566C319.666 126.831 319.898 128 320.054 129.008C320.085 129.19 320.11 129.356 320.135 129.512C320.246 130.178 320.299 130.853 320.291 131.528C320.348 133.158 320.568 134.779 320.947 136.365C321.079 137.031 321.23 137.741 321.396 138.482C321.623 139.49 321.871 140.588 322.138 141.707C322.284 142.322 322.441 142.957 322.602 143.587C322.663 143.839 322.728 144.091 322.789 144.348L322.89 144.746C323.965 149.014 325.13 153.262 325.847 155.832C326.27 157.344 326.538 158.276 326.538 158.276C326.538 158.276 334.136 146.006 340.201 139.021C340.292 138.92 340.372 138.825 340.458 138.734C341.059 138.044 341.649 137.414 342.214 136.859C343.45 135.63 344.56 134.753 345.453 134.43C345.644 134.361 345.828 134.275 346.003 134.173C348.485 132.767 352.492 127.663 356.24 122.316C356.609 121.812 356.967 121.263 357.33 120.744C358.163 119.544 358.97 118.34 359.732 117.186C360.317 116.304 360.877 115.447 361.407 114.631C363.93 110.711 365.706 107.788 365.706 107.788L369.207 107.632L369.818 107.601H370.226L386.125 106.866C386.125 106.866 386.811 106.981 387.941 107.208C388.002 107.208 388.062 107.208 388.128 107.249C393.769 108.367 409.44 111.91 410.398 116.823C411.569 122.84 436.847 130.868 436.847 130.868C437.18 134.899 443.37 137.555 443.37 137.555C443.37 137.555 452.745 162.298 450.237 171.993C447.76 181.568 456.685 205.252 456.923 205.918L455.212 208.074L412.896 261.536Z" fill="#E8F5FF"/>
<path opacity="0.1" d="M364.131 84.8238C364.131 84.8238 379.606 80.4397 383.123 89.465C386.639 98.4903 394.505 134.939 394.505 134.939C394.505 134.939 374.081 138.784 368.728 134.939C365.588 132.657 361.701 131.642 357.845 132.097L346.296 139.953L342.885 138.946C342.885 138.946 361.361 111.512 365.378 102.189C369.394 92.8665 370.751 88.699 364.131 84.8238Z" fill="black"/>
<path d="M363.46 82.808C363.46 82.808 378.945 78.4238 382.477 87.4492C386.009 96.4745 393.859 132.924 393.859 132.924C393.859 132.924 373.44 136.769 368.082 132.924C364.944 130.641 361.059 129.626 357.204 130.081L345.645 137.938L342.234 136.93C342.234 136.93 360.711 109.496 364.727 100.173C368.743 90.8507 370.08 86.6933 363.46 82.808Z" fill="#E8F5FF"/>
<path opacity="0.1" d="M259.59 228.216C259.59 228.216 271.139 231.058 273.318 237.579C275.498 244.1 264.781 244.266 264.781 244.266C264.781 244.266 258.253 232.731 259.59 228.216Z" fill="black"/>
<path opacity="0.1" d="M302.607 276.362C302.607 276.362 274.322 334.207 280.851 339.725C287.38 345.243 302.607 276.362 302.607 276.362Z" fill="black"/>
<path opacity="0.1" d="M341.608 233.734C341.608 233.734 364.207 289.922 359.686 298.6C355.166 307.277 369.394 298.6 369.394 298.6L341.608 233.734Z" fill="black"/>
<path d="M373.077 289.237C373.077 289.237 296.749 292.916 319.015 316.656C341.281 340.396 386.972 317.663 386.972 317.663L373.077 289.237Z" fill="#FFB0B1"/>
<path opacity="0.1" d="M362.033 63.5428C362.04 69.0105 360.964 74.4256 358.869 79.477C358.168 79.5576 357.466 79.608 356.79 79.6382C355.781 77.426 356.321 74.8711 356.341 72.4371C356.362 70.0031 355.463 67.1408 353.117 66.4857C348.44 65.1705 345.211 73.9035 340.599 72.3262C337.068 71.1269 337.991 65.7752 335.958 62.6861C334.348 60.242 331.124 59.5517 328.617 58.0197C323.283 54.7492 323.445 49.5185 320.968 44.5699C318.374 39.3845 312.895 40.9164 308.137 43.9753C304.524 46.3034 301.406 49.4227 297.542 51.2772C294.196 52.8897 290.438 53.4743 286.729 53.56C284.446 53.6483 282.162 53.4073 279.948 52.8444C282.552 43.0651 288.629 34.5658 297.045 28.9314C305.461 23.297 315.641 20.9121 325.688 22.2216C335.734 23.5311 344.961 28.4455 351.647 36.0483C358.334 43.6512 362.023 53.4235 362.028 63.5428H362.033Z" fill="black"/>
<path d="M308.152 42.64C304.535 44.9681 301.422 48.0824 297.557 49.9469C294.212 51.5545 290.453 52.139 286.744 52.2247C282.203 52.3255 277.314 51.5293 274.211 48.2537C271.361 45.2302 270.68 40.5789 271.885 36.613C273.091 32.6471 275.982 29.3565 279.378 26.9729C282.774 24.5893 286.714 22.9415 288.964 19.5299C290.155 17.7258 290.73 15.5992 291.719 13.6793C294.883 7.53641 301.997 4.21048 308.874 3.79726C315.751 3.38404 322.567 5.42999 329.116 7.64727C335.665 9.86455 342.265 12.3036 349.177 12.7621C352.255 12.9536 355.453 12.7621 358.309 13.9262C362.149 15.4833 364.666 19.2074 366.382 22.9969C368.304 27.2702 369.5 31.9366 369.298 36.6029C368.874 46.5656 362.285 56.3418 365.181 65.8862C365.948 68.431 367.386 71.0413 366.619 73.5862C365.499 77.3001 360.701 78.1467 356.821 78.3231C355.812 76.1109 356.352 73.5509 356.372 71.122C356.392 68.693 355.494 65.8257 353.153 65.1706C348.471 63.8654 345.241 72.5834 340.64 71.0111C337.133 69.8067 338.042 64.4601 336.003 61.371C334.394 58.9219 331.165 58.2365 328.662 56.7046C323.329 53.4341 323.49 48.2033 321.013 43.2548C318.4 38.0442 312.915 39.5761 308.152 42.64Z" fill="#575A89"/>
<path d="M234.14 234.399L230.29 235.74C230.29 235.74 231.804 258.477 226.759 264.998C221.713 271.519 243.328 287.73 243.328 287.73C243.328 287.73 272.955 287.564 273.792 285.21C274.63 282.857 272.279 243.082 272.279 243.082C272.279 243.082 256.375 236.894 257.712 227.032C257.712 227.032 252.859 250.268 245.664 249.265C238.469 248.262 230.3 242.261 234.14 234.399Z" fill="#E8F5FF"/>
<path opacity="0.1" d="M246.981 256.3C252.59 256.3 257.138 252.147 257.138 247.023C257.138 241.899 252.59 237.746 246.981 237.746C241.372 237.746 236.824 241.899 236.824 247.023C236.824 252.147 241.372 256.3 246.981 256.3Z" fill="black"/>
<path d="M258.086 235.07C258.086 235.07 256.068 173.55 238.5 187.257C220.931 200.964 220.76 217.357 224.105 222.199C227.45 227.042 238.177 251.286 238.177 251.286C239.855 252.257 241.739 252.818 243.676 252.921C245.612 253.025 247.546 252.669 249.318 251.882C251.09 251.095 252.65 249.901 253.871 248.396C255.092 246.89 255.938 245.118 256.34 243.223L258.086 235.07Z" fill="#FFB0B1"/>
<path opacity="0.1" d="M367.678 79.2402C367.596 78.9699 367.439 78.7286 367.224 78.5448C366.356 77.7536 364.49 77.4764 361.674 77.7183L361.79 79.0487C365.544 78.7262 366.286 79.472 366.382 79.598V79.724L366.498 79.8903C366.966 80.5185 367.297 81.2375 367.471 82.0011C367.645 82.7648 367.657 83.5562 367.507 84.3248C366.684 88.4318 361.634 91.7023 361.583 91.7376L361.462 91.8082L361.387 91.9241C359.207 95.1542 346.881 104.27 343.657 106.629L343.374 106.306C341.931 107.556 329.247 118.647 328.561 122.895C328.117 125.561 325.11 126.594 324.02 126.881C322.87 126.01 319.136 123.042 317.193 119.716C315.372 116.586 322.703 110.479 323.349 108.095L322.34 107.062C322.234 107.445 312.819 116.234 315.438 120.724C317.537 124.327 321.371 127.411 322.713 128.429C322.284 132.319 319.615 155.162 315.513 160.574C310.417 167.302 306.134 201.206 306.608 213.043C307.027 223.56 304.277 243.425 295.094 251.956C293.505 253.498 291.587 254.661 289.484 255.359C287.381 256.057 285.148 256.272 282.95 255.988H282.839H282.728C282.597 255.988 269.277 257.348 258.086 247.925C248.928 240.23 243.742 227.672 242.662 210.589H242.44L242.349 205.615C244.832 205.228 247.068 203.895 248.588 201.896C250.107 199.897 250.791 197.387 250.497 194.894C250.203 192.402 248.953 190.12 247.009 188.529C245.066 186.937 242.581 186.16 240.076 186.361C237.571 186.561 235.241 187.724 233.576 189.604C231.911 191.484 231.041 193.935 231.148 196.443C231.255 198.951 232.33 201.319 234.149 203.051C235.968 204.783 238.388 205.744 240.901 205.731H241.012L241.103 210.675L240.659 210.705C241.769 228.342 247.218 241.389 256.804 249.447C264.091 255.477 273.398 258.519 282.844 257.958C283.514 258.031 284.188 258.068 284.862 258.069C289.192 258.091 293.358 256.418 296.467 253.408C306.139 244.413 309.08 223.817 308.621 212.942C308.117 200.399 312.612 167.715 317.123 161.763C321.543 155.923 324.222 133.165 324.691 128.756C326.29 128.308 329.908 126.892 330.524 123.213C330.968 120.552 339.439 112.353 344.651 107.813L344.494 107.631C347.3 105.586 356.023 99.1353 360.347 94.993C361.689 93.708 363.021 92.4229 364.414 91.1984C366.089 89.7168 368.218 87.3635 368.778 84.5818C368.969 83.6636 368.97 82.7161 368.781 81.7975C368.592 80.8789 368.217 80.0086 367.678 79.2402V79.2402Z" fill="black"/>
<path d="M322.542 128.111C322.33 127.965 317.305 124.372 314.787 120.048C312.173 115.558 321.588 106.775 321.689 106.392L322.698 107.425C322.057 109.803 314.726 115.916 316.548 119.04C318.843 122.986 323.677 126.438 323.727 126.473L322.542 128.111Z" fill="#353146"/>
<path d="M343.001 107.606L342.214 106.523C342.375 106.407 358.223 94.9578 360.721 91.2539L360.801 91.143L360.918 91.0674C360.968 91.0322 366.018 87.7667 366.841 83.6547C366.993 82.8869 366.981 82.0959 366.807 81.3329C366.633 80.5698 366.301 79.8517 365.832 79.2251L365.716 79.0538V78.9329C365.615 78.8018 364.873 78.0611 361.119 78.3836L361.003 77.0482C363.824 76.8063 365.685 77.0834 366.553 77.8746C366.769 78.0603 366.928 78.3031 367.012 78.5751C367.558 79.3413 367.941 80.2109 368.137 81.1305C368.333 82.0501 368.338 83 368.153 83.9217C367.593 86.7085 365.469 89.0618 363.788 90.5383C362.401 91.7629 361.064 93.0579 359.727 94.3329C354.656 99.1857 343.556 107.208 343.001 107.606Z" fill="#E8F5FF"/>
<path d="M241.698 203.861L240.361 203.885L240.51 212.002L241.847 211.978L241.698 203.861Z" fill="#E8F5FF"/>
<path d="M240.25 205.091C245.642 205.091 250.013 200.725 250.013 195.34C250.013 189.955 245.642 185.589 240.25 185.589C234.858 185.589 230.487 189.955 230.487 195.34C230.487 200.725 234.858 205.091 240.25 205.091Z" fill="#587EEC"/>
<path d="M240.25 203.438C244.728 203.438 248.358 199.813 248.358 195.34C248.358 190.868 244.728 187.242 240.25 187.242C235.772 187.242 232.142 190.868 232.142 195.34C232.142 199.813 235.772 203.438 240.25 203.438Z" fill="#E8F5FF"/>
<path d="M284.226 257.419C283.552 257.42 282.879 257.384 282.208 257.313C272.763 257.869 263.458 254.827 256.169 248.802C246.582 240.739 241.143 227.707 240.023 210.055L242.041 209.929C243.121 227.012 248.308 239.575 257.47 247.265C268.661 256.663 281.976 255.328 282.107 255.328H282.218H282.329C284.528 255.611 286.761 255.395 288.865 254.697C290.968 253.999 292.887 252.837 294.479 251.296C303.656 242.765 306.406 222.9 305.987 212.383C305.483 200.536 309.766 166.631 314.867 159.909C319.333 154.018 322.103 127.466 322.133 127.199L322.209 126.443L322.955 126.312C323.001 126.312 327.36 125.486 327.905 122.23C328.611 117.987 341.275 106.896 342.713 105.641L344.03 107.153C338.798 111.688 330.327 119.892 329.903 122.558C329.287 126.247 325.67 127.658 324.075 128.101C323.571 132.515 320.912 155.268 316.507 161.108C311.997 167.06 307.501 199.744 308.006 212.287C308.44 223.162 305.528 243.762 295.856 252.752C292.742 255.77 288.565 257.446 284.226 257.419Z" fill="#353146"/>
<g opacity="0.1">
<path opacity="0.1" d="M366.331 51.63C367.159 48.5762 368.158 45.5022 368.854 42.4081C368.021 45.5173 367.017 48.5762 366.331 51.63Z" fill="black"/>
<path opacity="0.1" d="M357.89 75.627C356.881 73.4148 357.421 70.8548 357.441 68.4259C357.461 65.997 356.563 63.1548 354.222 62.4745C349.54 61.1694 346.311 69.8923 341.709 68.3151C338.178 67.1107 339.111 61.764 337.073 58.6749C335.463 56.2258 332.239 55.5405 329.737 54.0086C324.398 50.7381 324.56 45.5073 322.088 40.5587C319.489 35.3683 314.015 36.9002 309.252 39.9641C305.634 42.2922 302.521 45.4115 298.657 47.271C295.311 48.8786 291.553 49.4631 287.844 49.5488C283.328 49.6546 278.414 48.8534 275.311 45.5778C272.92 43.0582 272.057 39.3644 272.551 35.9024C272.466 36.1393 272.39 36.3761 272.314 36.613C271.103 40.5789 271.81 45.2402 274.64 48.2537C277.743 51.5292 282.657 52.3254 287.173 52.2246C290.887 52.139 294.64 51.5544 297.991 49.9469C301.865 48.0824 304.978 44.9681 308.586 42.6399C313.349 39.5761 318.828 38.0441 321.422 43.2346C323.894 48.1831 323.738 53.4139 329.071 56.6844C331.593 58.1962 334.797 58.9017 336.412 61.3508C338.43 64.4499 337.537 69.7865 341.049 70.9909C345.645 72.5632 348.874 63.8452 353.556 65.1504C355.897 65.8055 356.8 68.6779 356.775 71.1018C356.75 73.5257 356.225 76.0907 357.224 78.3029C361.104 78.1265 365.902 77.295 367.028 73.566C367.182 73.0308 367.254 72.475 367.239 71.9181C365.6 74.7452 361.382 75.4708 357.89 75.627Z" fill="black"/>
</g>
<path opacity="0.1" d="M449.077 199.795L454.935 205.983C454.935 205.983 459.622 240.084 461.963 243.274C464.304 246.463 469.834 259.152 464.642 268.682C464.642 268.682 462.967 273.867 463.971 276.039C464.975 278.211 456.443 289.081 456.443 289.081C456.443 289.081 445.227 299.109 442.881 300.616C440.535 302.122 428.153 314.156 423.971 314.322C419.788 314.489 418.421 319.674 418.421 319.674L394.818 320.511C394.818 320.511 381.781 319.83 378.945 321.67C378.945 321.67 380.459 301.775 365.892 288.733L384.47 282.046C384.47 282.046 391.503 279.022 393.678 275.863C395.046 273.926 396.987 272.465 399.228 271.685C399.228 271.685 404.415 268.006 404.581 266.001C404.748 263.995 410.923 261.536 410.923 261.536L407.427 231.729L409.268 182.243C409.268 182.243 415.126 140.78 427.513 143.123C439.899 145.466 449.077 199.795 449.077 199.795Z" fill="black"/>
<path d="M451.095 199.795L456.953 205.983C456.953 205.983 461.64 240.084 463.981 243.274C466.322 246.463 471.852 259.152 466.66 268.682C466.66 268.682 464.99 273.867 465.994 276.039C466.998 278.211 458.461 289.081 458.461 289.081C458.461 289.081 447.245 299.109 444.899 300.616C442.553 302.122 430.171 314.156 425.989 314.322C421.806 314.489 420.439 319.674 420.439 319.674L396.836 320.511C396.836 320.511 383.789 319.83 380.963 321.67C380.963 321.67 382.477 301.775 367.911 288.733L386.488 282.046C386.488 282.046 393.521 279.022 395.696 275.863C397.064 273.926 399.005 272.465 401.246 271.685C401.246 271.685 406.433 268.006 406.599 266.001C406.766 263.995 412.941 261.536 412.941 261.536L409.445 231.729L411.286 182.243C411.286 182.243 417.144 140.78 429.531 143.123C441.917 145.466 451.095 199.795 451.095 199.795Z" fill="#E8F5FF"/>
<path opacity="0.1" d="M429.319 249.784C429.319 249.784 446.559 245.249 451.08 250.792C455.601 256.335 429.319 249.784 429.319 249.784Z" fill="black"/>
<path opacity="0.1" d="M425.303 257.389C431.16 261.486 449.238 261.652 449.238 261.652L425.303 257.389Z" fill="black"/>
<path opacity="0.1" d="M434.172 277.868C434.677 278.035 446.599 290.744 451.605 286.899C456.61 283.054 434.172 277.868 434.172 277.868Z" fill="black"/>
<path opacity="0.1" d="M273.606 171.207C273.606 171.207 277.107 195.285 275.382 205.091C273.656 214.898 279.953 227.047 279.953 227.047L273.606 171.207Z" fill="black"/>
<path d="M196.087 180.998C192.051 184.158 189.104 191.636 186.97 199.855C183.247 214.192 182.031 230.817 182.031 230.817C182.031 230.817 149.891 223.459 152.232 220.118C153.706 218.017 151.728 202.183 150.078 190.704C149.094 183.921 148.216 178.655 148.216 178.655C148.216 178.655 207.137 172.301 196.087 180.998Z" fill="#FFB0B1"/>
<path opacity="0.1" d="M196.087 180.328C192.051 183.493 189.104 190.966 186.97 199.185C180.567 201.127 173.757 201.302 167.261 199.692C160.766 198.082 154.829 194.746 150.078 190.039C149.094 183.251 148.216 177.985 148.216 177.985C148.216 177.985 207.137 171.635 196.087 180.328Z" fill="black"/>
<path d="M213.363 162.318C213.366 171.083 210.265 179.566 204.608 186.267C198.951 192.967 191.102 197.453 182.452 198.93C173.802 200.407 164.908 198.78 157.343 194.337C149.779 189.894 144.032 182.921 141.119 174.653C138.207 166.385 138.318 157.354 141.431 149.159C144.544 140.965 150.46 134.134 158.131 129.877C165.802 125.619 174.733 124.21 183.345 125.897C191.956 127.584 199.692 132.26 205.184 139.097C210.476 145.682 213.361 153.873 213.363 162.318V162.318Z" fill="#FFB0B1"/>
<path opacity="0.1" d="M242.667 394.406H232.071L231.178 375.716L230.245 356.37C230.245 356.37 232.652 356.012 236.486 355.478L238.035 355.271H238.161C238.999 359.197 239.826 363.228 240.623 367.255C241.95 374.403 242.641 381.654 242.687 388.924C242.687 389.428 242.687 389.932 242.687 390.405C242.717 391.751 242.687 393.096 242.667 394.406Z" fill="black"/>
<path d="M240.634 394.407H107.756C108.332 393.101 108.715 392.31 108.715 392.31C108.715 392.31 119.346 345.858 124.75 326.205C124.751 326.188 124.751 326.171 124.75 326.155C125.425 323.485 126.24 320.852 127.192 318.268V318.268C127.253 318.092 127.333 317.924 127.429 317.764C130.103 313.42 133.453 308.739 128.766 302.052C124.079 295.365 125.738 265.94 125.738 265.94C125.738 265.94 131.43 240.86 137.454 227.486C138.368 225.414 139.666 223.533 141.279 221.942C141.803 221.43 142.363 220.955 142.954 220.521V220.521C143.403 220.184 143.871 219.873 144.356 219.589L144.452 219.529C146.983 218.096 149.793 217.224 152.691 216.974C154.75 216.759 156.828 216.816 158.872 217.145C168.64 218.576 176.461 220.97 182.677 223.696C199.523 231.089 204.624 240.996 204.725 241.203L204.766 241.288C205.442 242.865 215.331 265.925 218.893 276.684C219.816 279.486 220.321 281.456 220.119 281.995C219.11 284.666 227.818 318.102 227.818 318.102C227.818 318.102 231.855 334.228 235.891 353.13C236.068 353.916 236.234 354.702 236.396 355.498C237.117 358.93 237.833 362.427 238.525 365.92C239.864 373.117 240.555 380.419 240.588 387.74C240.662 390.021 240.677 392.243 240.634 394.407Z" fill="#EB5569"/>
<path opacity="0.1" d="M151.899 205.474C151.899 205.474 142.732 201.947 142.843 207.298C142.954 212.65 145.078 215.21 144.407 215.991C143.736 216.772 144.74 221.454 144.74 221.454C144.74 221.454 157.126 221.454 162.818 224.014C168.509 226.573 189.488 231.703 192.167 233.266C194.846 234.828 204.781 241.832 204.781 241.832L205.674 228.569C205.674 228.569 195.406 220.098 178.559 215.754C161.713 211.41 151.899 205.474 151.899 205.474Z" fill="black"/>
<path d="M151.899 204.804C151.899 204.804 142.732 201.276 142.843 206.628C142.954 211.98 145.078 214.54 144.407 215.321C143.736 216.102 144.74 220.783 144.74 220.783C144.74 220.783 157.126 220.783 162.818 223.348C168.509 225.913 189.488 231.038 192.167 232.595C194.846 234.153 204.781 241.162 204.781 241.162L205.684 227.939C205.684 227.939 195.416 219.468 178.569 215.124C161.723 210.78 151.899 204.804 151.899 204.804Z" fill="#EB5569"/>
<path opacity="0.1" d="M179.574 236.723C179.574 236.723 197.091 255.665 196.198 260.911C195.305 266.157 179.574 236.723 179.574 236.723Z" fill="black"/>
<path opacity="0.1" d="M151.117 305.151C151.117 305.151 138.276 316.968 134.492 317.638C130.708 318.308 137.393 320.536 141.743 318.757C146.092 316.978 155.365 312.297 155.365 312.297L151.117 305.151Z" fill="black"/>
<path d="M245.851 394.407H215.906C211.718 390.778 207.757 387.417 205.235 385.396C201.198 382.161 198.287 377.399 196.43 373.569C196.011 372.697 195.648 371.881 195.34 371.14C194.789 369.864 194.304 368.561 193.887 367.235L216.062 354.082C217.288 355.123 218.439 356.248 219.508 357.449L219.776 357.756C221.007 359.207 222.091 360.855 222.187 362.206C222.298 363.778 226.678 369.86 231.153 375.701C235.694 381.642 240.346 387.321 240.654 387.704C240.654 387.704 241.421 388.747 242.672 390.35C243.555 391.509 244.645 392.9 245.851 394.407Z" fill="#FFB0B1"/>
<path opacity="0.1" d="M205.184 139.097C204.12 141.495 203.166 143.985 203.025 146.656C202.626 154.366 203.272 171.605 194.725 175.475C190.492 177.38 185.961 173.198 181.319 173.097C177.979 173.026 174.917 175.143 172.878 177.788C170.84 180.434 169.574 183.573 168.095 186.567C166.75 189.284 165.199 191.895 163.458 194.378C162.938 195.137 162.365 195.86 161.743 196.539C156.531 194.343 151.89 190.987 148.174 186.728C144.457 182.469 141.763 177.419 140.297 171.962C138.831 166.506 138.631 160.787 139.713 155.241C140.794 149.696 143.129 144.47 146.54 139.963C149.95 135.455 154.345 131.784 159.391 129.23C164.436 126.676 169.999 125.306 175.655 125.225C181.311 125.143 186.911 126.352 192.028 128.76C197.146 131.167 201.645 134.709 205.184 139.117V139.097Z" fill="black"/>
<path d="M202.354 145.295C201.95 153.005 202.601 170.244 194.049 174.11C189.816 176.014 185.285 171.837 180.643 171.736C177.303 171.66 174.245 173.782 172.202 176.423C170.159 179.063 168.902 182.208 167.419 185.206C166.073 187.923 164.523 190.534 162.782 193.017C161.743 194.488 160.592 195.965 158.993 196.791C156.208 198.243 152.833 197.426 149.846 196.494C145.971 195.274 142.153 193.9 138.392 192.372C138.479 191.805 138.523 191.232 138.524 190.659C138.413 190.87 138.292 191.067 138.17 191.278L137.933 191.692C137.504 192.447 137.086 193.203 136.702 193.979C136.556 194.277 136.415 194.584 136.288 194.892C135.781 196.035 135.462 197.254 135.345 198.5C135.088 201.861 136.748 205.051 138.221 208.074C143.887 219.77 147.388 233.447 143.125 245.718C141.278 251.054 138.08 255.796 135.744 260.951C131.66 270.082 130.458 280.238 132.298 290.068C133.463 296.176 135.799 302.223 135.224 308.416C134.215 319.074 125.012 327.006 115.794 332.459C110.814 335.392 104.719 338.002 99.4314 335.684C102.802 331.753 103.67 326.316 104.396 321.186C106.384 307.193 108.377 293.194 110.375 279.188C111.172 273.615 111.968 268.042 112.762 262.468C114.245 251.997 115.748 241.409 114.82 230.872C114.144 223.106 112.237 214.862 115.607 207.832C117.388 204.108 120.562 201.024 121.551 197.013C122.363 193.753 121.606 190.286 122.141 186.965C122.434 185.454 122.929 183.989 123.614 182.611C124.487 180.74 125.625 179.006 126.995 177.461C125.643 177.068 124.381 176.528 123.614 175.4C125.784 173.989 126.112 170.809 125.128 168.42C124.144 166.032 122.176 164.212 120.405 162.328C118.634 160.443 116.929 158.246 116.707 155.676C116.278 150.783 121.172 146.993 122.035 142.166C122.908 137.252 119.457 132.475 119.734 127.501C120.057 121.489 125.587 117.12 131.046 114.586C139.284 110.777 148.385 109.212 157.424 110.05C164.78 110.746 171.899 113.018 179.235 113.9C183.66 114.404 188.146 114.455 192.54 115.231C196.935 116.007 201.34 117.644 204.432 120.865C212.586 129.356 202.818 136.345 202.354 145.295Z" fill="#575A89"/>
<path opacity="0.1" d="M195.532 373.574C192.959 372.46 188.277 373.126 180.239 370.682C172.202 368.238 170.653 357.191 170.653 357.191V357.156C170.557 356.904 169.81 355.261 164.755 349.507C159.17 343.152 147.096 311.057 147.096 311.057C147.096 311.057 136.389 299.572 136.727 295.339C137.065 291.106 134.825 279.844 135.047 267.245C135.269 254.647 159.149 246.292 159.149 246.292C205.129 238.154 194.301 291.096 193.075 295.108C191.849 299.119 198.211 309.953 198.211 309.953C197.313 314.67 201.895 321.972 201.895 321.972C201.895 321.972 203.005 328.432 203.232 330.886C203.244 331 203.27 331.111 203.307 331.219C204.044 333.532 210.048 335.628 212.49 336.903C215.058 338.244 223.318 349.945 223.318 349.945C225.099 358.537 198.095 374.703 195.532 373.574Z" fill="black"/>
<path d="M196.869 371.558C194.301 370.44 189.614 371.11 181.582 368.661C173.549 366.212 171.995 355.176 171.995 355.176V355.14C171.904 354.883 171.153 353.246 166.097 347.491C160.512 341.136 148.438 309.036 148.438 309.036C148.438 309.036 137.732 297.557 138.065 293.324C138.398 289.091 136.167 277.828 136.389 265.24C136.611 252.652 160.477 244.302 160.477 244.302C206.456 236.163 195.628 289.106 194.402 293.117C193.176 297.128 199.538 307.963 199.538 307.963C198.64 312.679 203.222 319.981 203.222 319.981C203.222 319.981 204.332 326.442 204.564 328.896C204.572 329.009 204.596 329.121 204.634 329.228C205.371 331.541 211.375 333.638 213.822 334.913C216.385 336.248 224.65 347.954 224.65 347.954C226.441 356.531 199.438 372.697 196.869 371.558Z" fill="#EB5569"/>
<path opacity="0.1" d="M161.385 271.942C161.385 271.942 181.471 293.107 186.713 293.107C191.955 293.107 161.385 271.942 161.385 271.942Z" fill="black"/>
<path d="M196.869 371.558C194.301 370.44 189.614 371.11 181.582 368.661C173.549 366.212 171.995 355.176 171.995 355.176V355.141C177.318 351.613 190.8 341.65 196.112 338.007C199.851 335.452 202.904 331.698 204.69 329.208C205.426 331.521 211.431 333.618 213.878 334.893C216.441 336.228 224.705 347.934 224.705 347.934C226.441 356.531 199.437 372.697 196.869 371.558Z" fill="#FF748E"/>
<g opacity="0.1">
<path opacity="0.1" d="M123.645 175.455C123.67 175.495 123.705 175.531 123.735 175.571C123.886 175.379 124.043 175.188 124.204 175.007C124.032 175.174 123.845 175.324 123.645 175.455V175.455Z" fill="black"/>
<path opacity="0.1" d="M135.35 198.555C135.562 195.758 137.06 193.294 138.463 190.835C137.545 190.482 136.627 190.124 135.718 189.752C135.805 189.186 135.849 188.615 135.85 188.043C134.432 190.563 132.888 193.042 132.671 195.879C132.414 199.246 134.074 202.43 135.547 205.454C141.218 217.145 144.714 230.822 140.451 243.097C138.599 248.429 135.406 253.176 133.069 258.331C128.987 267.46 127.787 277.615 129.628 287.443C130.784 293.556 133.125 299.598 132.55 305.791C131.541 316.449 122.343 324.381 113.12 329.828C109.351 332.056 104.946 334.097 100.733 333.95C100.343 334.577 99.9081 335.175 99.4314 335.739C104.724 338.072 110.814 335.447 115.794 332.504C125.022 327.062 134.24 319.15 135.249 308.472C135.824 302.279 133.483 296.236 132.323 290.124C130.481 280.297 131.677 270.143 135.754 261.012C138.075 255.862 141.304 251.11 143.135 245.778C147.399 233.503 143.897 219.826 138.231 208.135C136.763 205.091 135.093 201.921 135.35 198.555Z" fill="black"/>
<path opacity="0.1" d="M204.422 120.925C203.926 120.416 203.393 119.945 202.828 119.514C208.943 127.436 200.114 134.168 199.675 142.695C199.281 150.405 199.927 167.649 191.375 171.509C187.147 173.419 182.611 169.237 177.974 169.136C174.629 169.065 171.571 171.187 169.528 173.827C167.485 176.468 166.228 179.612 164.75 182.606C163.401 185.322 161.85 187.933 160.108 190.417C159.099 191.893 157.918 193.365 156.314 194.196C153.539 195.642 150.164 194.831 147.172 193.894C144.262 192.98 141.379 191.972 138.524 190.87C138.518 191.395 138.474 191.919 138.392 192.437C142.156 193.969 145.976 195.343 149.851 196.559C152.838 197.497 156.213 198.308 158.993 196.862C160.592 196.03 161.753 194.554 162.787 193.077C164.53 190.597 166.08 187.988 167.424 185.271C168.907 182.278 170.159 179.129 172.207 176.488C174.256 173.847 177.308 171.731 180.648 171.802C185.29 171.902 189.826 176.085 194.054 174.175C202.606 170.315 201.955 153.071 202.354 145.36C202.818 136.396 212.586 129.411 204.422 120.925Z" fill="black"/>
</g>
<path opacity="0.1" d="M137.938 191.697C137.51 192.452 137.091 193.208 136.707 193.984C136.561 194.282 136.42 194.589 136.294 194.897C133.65 192.236 127.212 185.912 123.619 183.951C124.493 182.081 125.631 180.347 127 178.801C127 178.801 135.562 183.321 137.938 191.697Z" fill="black"/>
<path d="M138.176 191.284C136.193 182.319 127 177.466 127 177.466C125.63 179.011 124.492 180.745 123.619 182.616C127.409 184.687 134.391 191.631 136.707 193.985L138.176 191.284Z" fill="#EB5569"/>
<defs>
<linearGradient id="paint0_linear_4_6" x1="368.334" y1="48.0723" x2="368.334" y2="38.8101" gradientUnits="userSpaceOnUse">
<stop stop-color="#808080" stop-opacity="0.25"/>
<stop offset="0.54" stop-color="#808080" stop-opacity="0.12"/>
<stop offset="1" stop-color="#808080" stop-opacity="0.1"/>
</linearGradient>
<linearGradient id="paint1_linear_4_6" x1="231472" y1="331838" x2="231472" y2="23136.5" gradientUnits="userSpaceOnUse">
<stop stop-color="#808080" stop-opacity="0.25"/>
<stop offset="0.54" stop-color="#808080" stop-opacity="0.12"/>
<stop offset="1" stop-color="#808080" stop-opacity="0.1"/>
</linearGradient>
</defs>
</svg>
